<svg width="1145" height="160" viewBox="0 0 1145 160" fill="none" xmlns="http://www.w3.org/2000/svg">
<rect x="0.5" y="0.5" width="1144" height="159" rx="49.5" fill="white" stroke="black"/>
<path d="M76.4383 110V63L65.7383 64.6V48.9L95.2383 44.6V110H76.4383Z" fill="black"/>
<path d="M173.41 68.3C170.39 68.3 168.15 67.51 166.69 65.93C165.23 64.33 164.5 61.8 164.5 58.34C164.5 54.88 165.23 52.36 166.69 50.78C168.15 49.18 170.39 48.38 173.41 48.38C176.45 48.38 178.69 49.18 180.13 50.78C181.59 52.36 182.32 54.88 182.32 58.34C182.32 61.8 181.59 64.33 180.13 65.93C178.69 67.51 176.45 68.3 173.41 68.3ZM173.41 66.2C174.87 66.2 176.07 65.95 177.01 65.45C177.97 64.95 178.68 64.13 179.14 62.99C179.62 61.83 179.86 60.28 179.86 58.34C179.86 56.4 179.62 54.86 179.14 53.72C178.68 52.56 177.97 51.73 177.01 51.23C176.07 50.73 174.87 50.48 173.41 50.48C171.95 50.48 170.74 50.73 169.78 51.23C168.84 51.73 168.13 52.56 167.65 53.72C167.19 54.86 166.96 56.4 166.96 58.34C166.96 60.28 167.19 61.83 167.65 62.99C168.13 64.13 168.84 64.95 169.78 65.45C170.74 65.95 171.95 66.2 173.41 66.2ZM192.244 68L199.594 48.68H202.474L209.794 68H207.274L205.234 62.69H196.834L194.794 68H192.244ZM197.254 60.74H204.784L201.004 50.81L197.254 60.74ZM213.381 68V48.68H220.941C223.741 48.68 225.791 49.44 227.091 50.96C228.391 52.48 229.041 54.98 229.041 58.46C229.041 61.76 228.401 64.18 227.121 65.72C225.861 67.24 223.801 68 220.941 68H213.381ZM215.841 66.08H220.491C221.851 66.08 222.981 65.88 223.881 65.48C224.781 65.06 225.451 64.3 225.891 63.2C226.351 62.1 226.581 60.52 226.581 58.46C226.581 56.42 226.371 54.83 225.951 53.69C225.551 52.55 224.901 51.76 224.001 51.32C223.121 50.86 221.951 50.63 220.491 50.63H215.841V66.08ZM240.609 68.3C237.969 68.3 235.949 67.67 234.549 66.41C233.169 65.15 232.479 63.32 232.479 60.92V48.68H234.939V60.95C234.939 62.71 235.429 64.03 236.409 64.91C237.409 65.77 238.809 66.2 240.609 66.2C242.389 66.2 243.769 65.77 244.749 64.91C245.749 64.03 246.249 62.71 246.249 60.95V48.68H248.709V60.92C248.709 63.32 248.009 65.15 246.609 66.41C245.229 67.67 243.229 68.3 240.609 68.3ZM252.756 68V48.68H255.216V66.08H265.506V68H252.756ZM269.841 68V50.63H263.421V48.68H278.721V50.63H272.301V68H269.841ZM288.84 68.3C285.82 68.3 283.58 67.51 282.12 65.93C280.66 64.33 279.93 61.8 279.93 58.34C279.93 54.88 280.66 52.36 282.12 50.78C283.58 49.18 285.82 48.38 288.84 48.38C291.88 48.38 294.12 49.18 295.56 50.78C297.02 52.36 297.75 54.88 297.75 58.34C297.75 61.8 297.02 64.33 295.56 65.93C294.12 67.51 291.88 68.3 288.84 68.3ZM288.84 66.2C290.3 66.2 291.5 65.95 292.44 65.45C293.4 64.95 294.11 64.13 294.57 62.99C295.05 61.83 295.29 60.28 295.29 58.34C295.29 56.4 295.05 54.86 294.57 53.72C294.11 52.56 293.4 51.73 292.44 51.23C291.5 50.73 290.3 50.48 288.84 50.48C287.38 50.48 286.17 50.73 285.21 51.23C284.27 51.73 283.56 52.56 283.08 53.72C282.62 54.86 282.39 56.4 282.39 58.34C282.39 60.28 282.62 61.83 283.08 62.99C283.56 64.13 284.27 64.95 285.21 65.45C286.17 65.95 287.38 66.2 288.84 66.2ZM319.404 73.16C317.984 73.16 316.944 72.72 316.284 71.84C315.644 70.98 315.304 69.78 315.264 68.24C312.704 68.02 310.794 67.12 309.534 65.54C308.294 63.94 307.674 61.54 307.674 58.34C307.674 54.88 308.404 52.36 309.864 50.78C311.324 49.18 313.564 48.38 316.584 48.38C319.624 48.38 321.864 49.18 323.304 50.78C324.764 52.36 325.494 54.88 325.494 58.34C325.494 61.6 324.854 64.03 323.574 65.63C322.294 67.21 320.324 68.09 317.664 68.27C317.684 69.31 317.844 70.03 318.144 70.43C318.464 70.85 319.044 71.06 319.884 71.06C320.604 71.06 321.314 70.96 322.014 70.76V72.83C321.694 72.91 321.294 72.98 320.814 73.04C320.334 73.12 319.864 73.16 319.404 73.16ZM316.584 66.2C318.044 66.2 319.244 65.95 320.184 65.45C321.144 64.95 321.854 64.13 322.314 62.99C322.794 61.83 323.034 60.28 323.034 58.34C323.034 56.4 322.794 54.86 322.314 53.72C321.854 52.56 321.144 51.73 320.184 51.23C319.244 50.73 318.044 50.48 316.584 50.48C315.124 50.48 313.914 50.73 312.954 51.23C312.014 51.73 311.304 52.56 310.824 53.72C310.364 54.86 310.134 56.4 310.134 58.34C310.134 60.28 310.364 61.83 310.824 62.99C311.304 64.13 312.014 64.95 312.954 65.45C313.914 65.95 315.124 66.2 316.584 66.2ZM337.084 68.3C334.444 68.3 332.424 67.67 331.024 66.41C329.644 65.15 328.954 63.32 328.954 60.92V48.68H331.414V60.95C331.414 62.71 331.904 64.03 332.884 64.91C333.884 65.77 335.284 66.2 337.084 66.2C338.864 66.2 340.244 65.77 341.224 64.91C342.224 64.03 342.724 62.71 342.724 60.95V48.68H345.184V60.92C345.184 63.32 344.484 65.15 343.084 66.41C341.704 67.67 339.704 68.3 337.084 68.3ZM349.231 68V48.68H362.281V50.63H351.691V57.38H361.201V59.3H351.691V66.08H362.281V68H349.231ZM381.456 68.3C379.376 68.3 377.646 67.91 376.266 67.13C374.906 66.33 373.886 65.22 373.206 63.8C372.526 62.36 372.186 60.68 372.186 58.76C372.186 56.66 372.506 54.83 373.146 53.27C373.786 51.71 374.786 50.51 376.146 49.67C377.506 48.81 379.266 48.38 381.426 48.38C382.546 48.38 383.556 48.46 384.456 48.62C385.376 48.78 386.236 49 387.036 49.28V51.44C386.236 51.14 385.386 50.91 384.486 50.75C383.586 50.57 382.636 50.48 381.636 50.48C379.896 50.48 378.516 50.81 377.496 51.47C376.476 52.13 375.746 53.08 375.306 54.32C374.866 55.56 374.646 57.04 374.646 58.76C374.646 61.14 375.206 62.98 376.326 64.28C377.466 65.56 379.256 66.2 381.696 66.2C382.596 66.2 383.506 66.13 384.426 65.99C385.366 65.85 386.236 65.63 387.036 65.33V67.52C386.256 67.76 385.406 67.95 384.486 68.09C383.586 68.23 382.576 68.3 381.456 68.3ZM398.607 68.3C395.967 68.3 393.947 67.67 392.547 66.41C391.167 65.15 390.477 63.32 390.477 60.92V48.68H392.937V60.95C392.937 62.71 393.427 64.03 394.407 64.91C395.407 65.77 396.807 66.2 398.607 66.2C400.387 66.2 401.767 65.77 402.747 64.91C403.747 64.03 404.247 62.71 404.247 60.95V48.68H406.707V60.92C406.707 63.32 406.007 65.15 404.607 66.41C403.227 67.67 401.227 68.3 398.607 68.3ZM410.754 68V48.68H413.214V68H410.754ZM417.405 68V48.68H424.965C427.765 48.68 429.815 49.44 431.115 50.96C432.415 52.48 433.065 54.98 433.065 58.46C433.065 61.76 432.425 64.18 431.145 65.72C429.885 67.24 427.825 68 424.965 68H417.405ZM419.865 66.08H424.515C425.875 66.08 427.005 65.88 427.905 65.48C428.805 65.06 429.475 64.3 429.915 63.2C430.375 62.1 430.605 60.52 430.605 58.46C430.605 56.42 430.395 54.83 429.975 53.69C429.575 52.55 428.925 51.76 428.025 51.32C427.145 50.86 425.975 50.63 424.515 50.63H419.865V66.08ZM434.412 68L441.762 48.68H444.642L451.962 68H449.442L447.402 62.69H439.002L436.962 68H434.412ZM439.422 60.74H446.952L443.172 50.81L439.422 60.74ZM462.463 68V48.68H475.513V50.63H464.923V57.38H474.433V59.3H464.923V66.08H475.513V68H462.463ZM491.688 68.3C489.288 68.3 487.348 68 485.868 67.4V65.21C486.708 65.53 487.598 65.78 488.538 65.96C489.498 66.12 490.478 66.2 491.478 66.2C493.198 66.2 494.488 65.97 495.348 65.51C496.208 65.03 496.638 64.18 496.638 62.96C496.638 62.2 496.458 61.6 496.098 61.16C495.758 60.7 495.188 60.32 494.388 60.02C493.588 59.7 492.518 59.38 491.178 59.06C489.058 58.54 487.568 57.87 486.708 57.05C485.848 56.21 485.418 55.09 485.418 53.69C485.418 52.05 486.008 50.76 487.188 49.82C488.368 48.86 490.168 48.38 492.588 48.38C493.708 48.38 494.748 48.46 495.708 48.62C496.668 48.78 497.408 48.95 497.928 49.13V51.29C497.208 51.03 496.428 50.83 495.588 50.69C494.748 50.55 493.878 50.48 492.978 50.48C491.338 50.48 490.078 50.72 489.198 51.2C488.318 51.68 487.878 52.51 487.878 53.69C487.878 54.35 488.028 54.89 488.328 55.31C488.648 55.71 489.178 56.06 489.918 56.36C490.658 56.64 491.688 56.94 493.008 57.26C494.588 57.64 495.818 58.1 496.698 58.64C497.578 59.16 498.198 59.78 498.558 60.5C498.918 61.22 499.098 62.04 499.098 62.96C499.098 64.66 498.478 65.98 497.238 66.92C495.998 67.84 494.148 68.3 491.688 68.3ZM502.688 68V48.68H515.738V50.63H505.148V57.38H514.658V59.3H505.148V66.08H515.738V68H502.688ZM526.243 68V48.68H534.403C536.563 48.68 538.153 49.26 539.173 50.42C540.193 51.58 540.703 53.08 540.703 54.92C540.703 56.8 540.123 58.29 538.963 59.39C537.823 60.47 536.263 61.01 534.283 61.01H528.703V68H526.243ZM528.703 59.09H533.893C535.333 59.09 536.413 58.72 537.133 57.98C537.873 57.22 538.243 56.2 538.243 54.92C538.243 53.56 537.893 52.51 537.193 51.77C536.513 51.01 535.463 50.63 534.043 50.63H528.703V59.09ZM543.704 68V48.68H552.194C554.274 48.68 555.784 49.22 556.724 50.3C557.684 51.38 558.164 52.84 558.164 54.68C558.164 56.1 557.814 57.28 557.114 58.22C556.434 59.16 555.414 59.79 554.054 60.11C554.454 60.35 554.754 60.63 554.954 60.95C555.174 61.25 555.394 61.66 555.614 62.18L558.134 68H555.614L553.154 62.39C552.894 61.79 552.574 61.36 552.194 61.1C551.834 60.84 551.184 60.71 550.244 60.71H546.164V68H543.704ZM546.164 58.79H551.504C552.804 58.79 553.824 58.47 554.564 57.83C555.324 57.17 555.704 56.12 555.704 54.68C555.704 51.98 554.414 50.63 551.834 50.63H546.164V58.79ZM561.75 68V48.68H574.8V50.63H564.21V57.38H573.72V59.3H564.21V66.08H574.8V68H561.75ZM586.408 68.3C583.388 68.3 581.148 67.51 579.688 65.93C578.228 64.33 577.498 61.8 577.498 58.34C577.498 54.88 578.228 52.36 579.688 50.78C581.148 49.18 583.388 48.38 586.408 48.38C589.448 48.38 591.688 49.18 593.128 50.78C594.588 52.36 595.318 54.88 595.318 58.34C595.318 61.8 594.588 64.33 593.128 65.93C591.688 67.51 589.448 68.3 586.408 68.3ZM586.408 66.2C587.868 66.2 589.068 65.95 590.008 65.45C590.968 64.95 591.678 64.13 592.138 62.99C592.618 61.83 592.858 60.28 592.858 58.34C592.858 56.4 592.618 54.86 592.138 53.72C591.678 52.56 590.968 51.73 590.008 51.23C589.068 50.73 587.868 50.48 586.408 50.48C584.948 50.48 583.738 50.73 582.778 51.23C581.838 51.73 581.128 52.56 580.648 53.72C580.188 54.86 579.958 56.4 579.958 58.34C579.958 60.28 580.188 61.83 580.648 62.99C581.128 64.13 581.838 64.95 582.778 65.45C583.738 65.95 584.948 66.2 586.408 66.2ZM607.598 68.3C605.518 68.3 603.788 67.91 602.408 67.13C601.048 66.33 600.028 65.22 599.348 63.8C598.668 62.36 598.328 60.68 598.328 58.76C598.328 56.66 598.648 54.83 599.288 53.27C599.928 51.71 600.928 50.51 602.288 49.67C603.648 48.81 605.408 48.38 607.568 48.38C608.688 48.38 609.698 48.46 610.598 48.62C611.518 48.78 612.378 49 613.178 49.28V51.44C612.378 51.14 611.528 50.91 610.628 50.75C609.728 50.57 608.778 50.48 607.778 50.48C606.038 50.48 604.658 50.81 603.638 51.47C602.618 52.13 601.888 53.08 601.448 54.32C601.008 55.56 600.788 57.04 600.788 58.76C600.788 61.14 601.348 62.98 602.468 64.28C603.608 65.56 605.398 66.2 607.838 66.2C608.738 66.2 609.648 66.13 610.568 65.99C611.508 65.85 612.378 65.63 613.178 65.33V67.52C612.398 67.76 611.548 67.95 610.628 68.09C609.728 68.23 608.718 68.3 607.598 68.3ZM624.75 68.3C622.11 68.3 620.09 67.67 618.69 66.41C617.31 65.15 616.62 63.32 616.62 60.92V48.68H619.08V60.95C619.08 62.71 619.57 64.03 620.55 64.91C621.55 65.77 622.95 66.2 624.75 66.2C626.53 66.2 627.91 65.77 628.89 64.91C629.89 64.03 630.39 62.71 630.39 60.95V48.68H632.85V60.92C632.85 63.32 632.15 65.15 630.75 66.41C629.37 67.67 627.37 68.3 624.75 68.3ZM636.897 68V48.68H645.057C647.217 48.68 648.807 49.26 649.827 50.42C650.847 51.58 651.357 53.08 651.357 54.92C651.357 56.8 650.777 58.29 649.617 59.39C648.477 60.47 646.917 61.01 644.937 61.01H639.357V68H636.897ZM639.357 59.09H644.547C645.987 59.09 647.067 58.72 647.787 57.98C648.527 57.22 648.897 56.2 648.897 54.92C648.897 53.56 648.547 52.51 647.847 51.77C647.167 51.01 646.117 50.63 644.697 50.63H639.357V59.09ZM651.355 68L658.705 48.68H661.585L668.905 68H666.385L664.345 62.69H655.945L653.905 68H651.355ZM656.365 60.74H663.895L660.115 50.81L656.365 60.74ZM173.77 113.3C171.69 113.3 169.96 112.91 168.58 112.13C167.22 111.33 166.2 110.22 165.52 108.8C164.84 107.36 164.5 105.68 164.5 103.76C164.5 101.66 164.82 99.83 165.46 98.27C166.1 96.71 167.1 95.51 168.46 94.67C169.82 93.81 171.58 93.38 173.74 93.38C174.86 93.38 175.87 93.46 176.77 93.62C177.69 93.78 178.55 94 179.35 94.28V96.44C178.55 96.14 177.7 95.91 176.8 95.75C175.9 95.57 174.95 95.48 173.95 95.48C172.21 95.48 170.83 95.81 169.81 96.47C168.79 97.13 168.06 98.08 167.62 99.32C167.18 100.56 166.96 102.04 166.96 103.76C166.96 106.14 167.52 107.98 168.64 109.28C169.78 110.56 171.57 111.2 174.01 111.2C174.91 111.2 175.82 111.13 176.74 110.99C177.68 110.85 178.55 110.63 179.35 110.33V112.52C178.57 112.76 177.72 112.95 176.8 113.09C175.9 113.23 174.89 113.3 173.77 113.3ZM190.666 113.3C187.646 113.3 185.406 112.51 183.946 110.93C182.486 109.33 181.756 106.8 181.756 103.34C181.756 99.88 182.486 97.36 183.946 95.78C185.406 94.18 187.646 93.38 190.666 93.38C193.706 93.38 195.946 94.18 197.386 95.78C198.846 97.36 199.576 99.88 199.576 103.34C199.576 106.8 198.846 109.33 197.386 110.93C195.946 112.51 193.706 113.3 190.666 113.3ZM190.666 111.2C192.126 111.2 193.326 110.95 194.266 110.45C195.226 109.95 195.936 109.13 196.396 107.99C196.876 106.83 197.116 105.28 197.116 103.34C197.116 101.4 196.876 99.86 196.396 98.72C195.936 97.56 195.226 96.73 194.266 96.23C193.326 95.73 192.126 95.48 190.666 95.48C189.206 95.48 187.996 95.73 187.036 96.23C186.096 96.73 185.386 97.56 184.906 98.72C184.446 99.86 184.216 101.4 184.216 103.34C184.216 105.28 184.446 106.83 184.906 107.99C185.386 109.13 186.096 109.95 187.036 110.45C187.996 110.95 189.206 111.2 190.666 111.2ZM203.186 113V93.68H205.826L212.366 107.09L218.906 93.68H221.546V113H219.116V97.52L213.206 109.64H211.556L205.616 97.52V113H203.186ZM239.409 113L232.059 93.68H234.609L240.819 110.51L247.059 93.68H249.609L242.289 113H239.409ZM260.305 113.3C257.285 113.3 255.045 112.51 253.585 110.93C252.125 109.33 251.395 106.8 251.395 103.34C251.395 99.88 252.125 97.36 253.585 95.78C255.045 94.18 257.285 93.38 260.305 93.38C263.345 93.38 265.585 94.18 267.025 95.78C268.485 97.36 269.215 99.88 269.215 103.34C269.215 106.8 268.485 109.33 267.025 110.93C265.585 112.51 263.345 113.3 260.305 113.3ZM260.305 111.2C261.765 111.2 262.965 110.95 263.905 110.45C264.865 109.95 265.575 109.13 266.035 107.99C266.515 106.83 266.755 105.28 266.755 103.34C266.755 101.4 266.515 99.86 266.035 98.72C265.575 97.56 264.865 96.73 263.905 96.23C262.965 95.73 261.765 95.48 260.305 95.48C258.845 95.48 257.635 95.73 256.675 96.23C255.735 96.73 255.025 97.56 254.545 98.72C254.085 99.86 253.855 101.4 253.855 103.34C253.855 105.28 254.085 106.83 254.545 107.99C255.025 109.13 255.735 109.95 256.675 110.45C257.635 110.95 258.845 111.2 260.305 111.2ZM281.495 113.3C279.415 113.3 277.685 112.91 276.305 112.13C274.945 111.33 273.925 110.22 273.245 108.8C272.565 107.36 272.225 105.68 272.225 103.76C272.225 101.66 272.545 99.83 273.185 98.27C273.825 96.71 274.825 95.51 276.185 94.67C277.545 93.81 279.305 93.38 281.465 93.38C282.585 93.38 283.595 93.46 284.495 93.62C285.415 93.78 286.275 94 287.075 94.28V96.44C286.275 96.14 285.425 95.91 284.525 95.75C283.625 95.57 282.675 95.48 281.675 95.48C279.935 95.48 278.555 95.81 277.535 96.47C276.515 97.13 275.785 98.08 275.345 99.32C274.905 100.56 274.685 102.04 274.685 103.76C274.685 106.14 275.245 107.98 276.365 109.28C277.505 110.56 279.295 111.2 281.735 111.2C282.635 111.2 283.545 111.13 284.465 110.99C285.405 110.85 286.275 110.63 287.075 110.33V112.52C286.295 112.76 285.445 112.95 284.525 113.09C283.625 113.23 282.615 113.3 281.495 113.3ZM292.346 92.36L295.796 87.92H297.776L301.226 92.36H299.096L296.786 89.3L294.476 92.36H292.346ZM290.666 113V93.68H303.716V95.63H293.126V102.38H302.636V104.3H293.126V111.08H303.716V113H290.666ZM319.441 113V95.63H313.021V93.68H328.321V95.63H321.901V113H319.441ZM331.33 113V93.68H344.38V95.63H333.79V102.38H343.3V104.3H333.79V111.08H344.38V113H331.33ZM354.885 113V93.68H362.445C365.245 93.68 367.295 94.44 368.595 95.96C369.895 97.48 370.545 99.98 370.545 103.46C370.545 106.76 369.905 109.18 368.625 110.72C367.365 112.24 365.305 113 362.445 113H354.885ZM357.345 111.08H361.995C363.355 111.08 364.485 110.88 365.385 110.48C366.285 110.06 366.955 109.3 367.395 108.2C367.855 107.1 368.085 105.52 368.085 103.46C368.085 101.42 367.875 99.83 367.455 98.69C367.055 97.55 366.405 96.76 365.505 96.32C364.625 95.86 363.455 95.63 361.995 95.63H357.345V111.08ZM379.153 92.36L381.283 87.32H383.503L381.133 92.36H379.153ZM371.893 113L379.243 93.68H382.123L389.443 113H386.923L384.883 107.69H376.483L374.443 113H371.893ZM376.903 105.74H384.433L380.653 95.81L376.903 105.74ZM407.924 113.3C405.284 113.3 403.264 112.67 401.864 111.41C400.484 110.15 399.794 108.32 399.794 105.92V93.68H402.254V105.95C402.254 107.71 402.744 109.03 403.724 109.91C404.724 110.77 406.124 111.2 407.924 111.2C409.704 111.2 411.084 110.77 412.064 109.91C413.064 109.03 413.564 107.71 413.564 105.95V93.68H416.024V105.92C416.024 108.32 415.324 110.15 413.924 111.41C412.544 112.67 410.544 113.3 407.924 113.3ZM420.071 113V93.68H422.711L429.251 107.09L435.791 93.68H438.431V113H436.001V97.52L430.091 109.64H428.441L422.501 97.52V113H420.071ZM448.943 113L456.293 93.68H459.173L466.493 113H463.973L461.933 107.69H453.533L451.493 113H448.943ZM453.953 105.74H461.483L457.703 95.81L453.953 105.74ZM470.08 113V93.68H479.02C480.92 93.68 482.31 94.13 483.19 95.03C484.09 95.91 484.54 97.16 484.54 98.78C484.54 99.84 484.32 100.73 483.88 101.45C483.46 102.15 482.87 102.68 482.11 103.04C483.09 103.28 483.86 103.75 484.42 104.45C485 105.13 485.29 106.14 485.29 107.48C485.29 109.36 484.8 110.75 483.82 111.65C482.84 112.55 481.4 113 479.5 113H470.08ZM472.54 102.14H478.87C480.09 102.14 480.95 101.85 481.45 101.27C481.97 100.67 482.23 99.9 482.23 98.96C482.23 97.84 481.97 97 481.45 96.44C480.93 95.86 479.92 95.57 478.42 95.57H472.54V102.14ZM472.54 111.14H479.08C480.38 111.14 481.33 110.86 481.93 110.3C482.53 109.72 482.83 108.75 482.83 107.39C482.83 106.27 482.53 105.43 481.93 104.87C481.35 104.29 480.27 104 478.69 104H472.54V111.14ZM488.889 113V93.68H497.379C499.459 93.68 500.969 94.22 501.909 95.3C502.869 96.38 503.349 97.84 503.349 99.68C503.349 101.1 502.999 102.28 502.299 103.22C501.619 104.16 500.599 104.79 499.239 105.11C499.639 105.35 499.939 105.63 500.139 105.95C500.359 106.25 500.579 106.66 500.799 107.18L503.319 113H500.799L498.339 107.39C498.079 106.79 497.759 106.36 497.379 106.1C497.019 105.84 496.369 105.71 495.429 105.71H491.349V113H488.889ZM491.349 103.79H496.689C497.989 103.79 499.009 103.47 499.749 102.83C500.509 102.17 500.889 101.12 500.889 99.68C500.889 96.98 499.599 95.63 497.019 95.63H491.349V103.79ZM504.988 113L512.338 93.68H515.218L522.538 113H520.018L517.978 107.69H509.578L507.538 113H504.988ZM509.998 105.74H517.528L513.748 95.81L509.998 105.74ZM532.165 120.2C531.845 120.2 531.465 120.17 531.025 120.11C530.605 120.07 530.285 120.02 530.065 119.96V118.46C530.645 118.62 531.275 118.7 531.955 118.7C532.895 118.7 533.575 118.59 533.995 118.37C534.435 118.15 534.655 117.73 534.655 117.11C534.655 116.53 534.445 116.15 534.025 115.97C533.605 115.81 532.965 115.73 532.105 115.73H530.995L531.775 113.24C529.135 112.98 527.155 112 525.835 110.3C524.535 108.6 523.885 106.42 523.885 103.76C523.885 101.66 524.205 99.83 524.845 98.27C525.485 96.71 526.485 95.51 527.845 94.67C529.205 93.81 530.965 93.38 533.125 93.38C534.245 93.38 535.255 93.46 536.155 93.62C537.075 93.78 537.935 94 538.735 94.28V96.44C537.935 96.14 537.085 95.91 536.185 95.75C535.285 95.57 534.335 95.48 533.335 95.48C531.595 95.48 530.215 95.81 529.195 96.47C528.175 97.13 527.445 98.08 527.005 99.32C526.565 100.56 526.345 102.04 526.345 103.76C526.345 106.14 526.905 107.98 528.025 109.28C529.165 110.56 530.955 111.2 533.395 111.2C534.295 111.2 535.205 111.13 536.125 110.99C537.065 110.85 537.935 110.63 538.735 110.33V112.52C537.995 112.74 537.195 112.92 536.335 113.06C535.475 113.2 534.535 113.28 533.515 113.3L533.125 114.44C534.225 114.44 535.055 114.67 535.615 115.13C536.175 115.61 536.455 116.28 536.455 117.14C536.455 118.12 536.105 118.87 535.405 119.39C534.725 119.93 533.645 120.2 532.165 120.2ZM550.051 113.3C547.031 113.3 544.791 112.51 543.331 110.93C541.871 109.33 541.141 106.8 541.141 103.34C541.141 99.88 541.871 97.36 543.331 95.78C544.791 94.18 547.031 93.38 550.051 93.38C553.091 93.38 555.331 94.18 556.771 95.78C558.231 97.36 558.961 99.88 558.961 103.34C558.961 106.8 558.231 109.33 556.771 110.93C555.331 112.51 553.091 113.3 550.051 113.3ZM550.051 111.2C551.511 111.2 552.711 110.95 553.651 110.45C554.611 109.95 555.321 109.13 555.781 107.99C556.261 106.83 556.501 105.28 556.501 103.34C556.501 101.4 556.261 99.86 555.781 98.72C555.321 97.56 554.611 96.73 553.651 96.23C552.711 95.73 551.511 95.48 550.051 95.48C548.591 95.48 547.381 95.73 546.421 96.23C545.481 96.73 544.771 97.56 544.291 98.72C543.831 99.86 543.601 101.4 543.601 103.34C543.601 105.28 543.831 106.83 544.291 107.99C544.771 109.13 545.481 109.95 546.421 110.45C547.381 110.95 548.591 111.2 550.051 111.2ZM569.485 113V93.68H577.045C579.845 93.68 581.895 94.44 583.195 95.96C584.495 97.48 585.145 99.98 585.145 103.46C585.145 106.76 584.505 109.18 583.225 110.72C581.965 112.24 579.905 113 577.045 113H569.485ZM571.945 111.08H576.595C577.955 111.08 579.085 110.88 579.985 110.48C580.885 110.06 581.555 109.3 581.995 108.2C582.455 107.1 582.685 105.52 582.685 103.46C582.685 101.42 582.475 99.83 582.055 98.69C581.655 97.55 581.005 96.76 580.105 96.32C579.225 95.86 578.055 95.63 576.595 95.63H571.945V111.08ZM588.733 113V93.68H601.783V95.63H591.193V102.38H600.703V104.3H591.193V111.08H601.783V113H588.733ZM611.688 113L619.038 93.68H621.918L629.238 113H626.717L624.678 107.69H616.278L614.238 113H611.688ZM616.698 105.74H624.228L620.448 95.81L616.698 105.74ZM632.825 113V93.68H635.285V111.08H645.575V113H632.825ZM648.586 113V93.68H661.636V95.63H651.046V102.38H660.556V104.3H651.046V111.08H661.636V113H648.586ZM673.604 113.3C671.524 113.3 669.794 112.91 668.414 112.13C667.054 111.33 666.034 110.22 665.354 108.8C664.674 107.36 664.334 105.68 664.334 103.76C664.334 101.66 664.654 99.83 665.294 98.27C665.934 96.71 666.934 95.51 668.294 94.67C669.654 93.81 671.414 93.38 673.574 93.38C674.694 93.38 675.704 93.46 676.604 93.62C677.524 93.78 678.384 94 679.184 94.28V96.44C678.384 96.14 677.534 95.91 676.634 95.75C675.734 95.57 674.784 95.48 673.784 95.48C672.044 95.48 670.664 95.81 669.644 96.47C668.624 97.13 667.894 98.08 667.454 99.32C667.014 100.56 666.794 102.04 666.794 103.76C666.794 106.14 667.344 107.98 668.444 109.28C669.544 110.56 671.314 111.2 673.754 111.2C674.614 111.2 675.444 111.13 676.244 110.99C677.044 110.85 677.754 110.66 678.374 110.42V104.27H673.214V102.59H680.504V111.77C679.924 112.15 679.074 112.5 677.954 112.82C676.854 113.14 675.404 113.3 673.604 113.3ZM684.094 113V93.68H692.584C694.664 93.68 696.174 94.22 697.114 95.3C698.074 96.38 698.554 97.84 698.554 99.68C698.554 101.1 698.204 102.28 697.504 103.22C696.824 104.16 695.804 104.79 694.444 105.11C694.844 105.35 695.144 105.63 695.344 105.95C695.564 106.25 695.784 106.66 696.004 107.18L698.524 113H696.004L693.544 107.39C693.284 106.79 692.964 106.36 692.584 106.1C692.224 105.84 691.574 105.71 690.634 105.71H686.554V113H684.094ZM686.554 103.79H691.894C693.194 103.79 694.214 103.47 694.954 102.83C695.714 102.17 696.094 101.12 696.094 99.68C696.094 96.98 694.804 95.63 692.224 95.63H686.554V103.79ZM702.141 113V93.68H704.601V113H702.141ZM708.191 113L715.541 93.68H718.421L725.741 113H723.221L721.181 107.69H712.781L710.741 113H708.191ZM713.201 105.74H720.731L716.951 95.81L713.201 105.74ZM728.729 113V110.93H730.949V113H728.729Z" fill="black"/>
</svg>
